<?xml version="1.0" encoding="utf-8"?>
<!-- Generator: Adobe Illustrator 23.0.1, SVG Export Plug-In . SVG Version: 6.00 Build 0)  -->
<svg version="1.1" id="Calque_1" xmlns="http://www.w3.org/2000/svg" xmlns:xlink="http://www.w3.org/1999/xlink" x="0px" y="0px"
	 viewBox="0 0 4261.9 1024" enable-background="new 0 0 4261.9 1024" xml:space="preserve">
<g>
	<path d="M361.1,497.8c-32.9,73.6-44.3,77.2-123.6,77.2c-57.1,0-68.6-5.7-77.1-15.7c-10.7-12.1-12.2-37.8-12.2-73.6V235
		c0-74.3,6.4-76.4,40-81.4l15.7-2.8c5.7-3.6,5-17.9-1.4-20.7c-31.4,1.4-63.6,2.1-95,2.1c-32.9,0-65-0.7-100.7-2.1
		c-6.4,2.9-6.4,17.1-1.4,20.7l20,2.8c33.6,5,40,7.2,40,81.4v265.7c0,74.3-6.4,76.4-40,80.7L3.9,585c-6.4,3.6-4.3,17.9,1.4,20.7
		c30-1.4,65.7-2.1,102.1-2.1h74.3c80,0,141.4,0.7,171.4,2.1c8.6-19.3,24.3-73.6,30-103.6C379.6,496.4,368.2,494.3,361.1,497.8z"/>
	<path d="M364,103.6c-32.1,0-40.7,21.4-40.7,33.6c0,15.7,11.4,24.3,22.1,25.7C362.5,165,384,176.4,384,200c0,31.4-27.1,52.2-57.9,65
		c-2.2,5.7-0.7,14.3,5,18.6c49.3-12.1,97.9-52.1,97.9-106.4C429,137.9,399,103.6,364,103.6z"/>
	<path d="M1133.4,306.2C1133.4,149.1,1029.8,0,823.6,0C639.7,0,505.7,136.6,505.7,315.2c0,160.7,119.6,302.7,317.8,302.7
		C995.9,617.9,1133.4,486.6,1133.4,306.2z M595,286.6C595,91.1,715.6,27.7,808.4,27.7c170.5,0,235.7,158.9,235.7,306.2
		c0,175.9-101.8,256.2-208.9,256.2C659.3,590.2,595,418.7,595,286.6z"/>
	<path d="M1637.9,480c-20,46.4-59.3,106.4-149.3,106.4c-92.1,0-187.1-74.3-187.1-226.4c0-146.4,91.4-210.7,182.1-210.7
		c94.3,0,126.4,59.3,138.6,104.3c5,5,17.9,4.3,22.9-1.4c-7.1-52.9-8.6-95-10-111.4c-6.4-1.4-11.4-2.1-20-4.3
		c-33.6-8.6-82.8-15.7-123.6-15.7c-72.1,0-144.3,20.7-197.1,60.7c-52.9,40.7-90,105.7-90,189.3c0,93.6,43.6,158.6,101.4,196.4
		c51.4,33.6,112.1,47.8,182.9,47.8c46.4,0,95.7-12.1,111.4-17.1c7.9-2.1,16.4-5,25-6.4c10-13.6,29.3-60.7,34.3-108.6
		C1655.8,476.4,1644.4,473.6,1637.9,480z"/>
	<path d="M2133.6,480c-20,46.4-59.3,106.4-149.3,106.4c-92.1,0-187.1-74.3-187.1-226.4c0-146.4,91.4-210.7,182.1-210.7
		c94.3,0,126.4,59.3,138.6,104.3c5,5,17.9,4.3,22.9-1.4c-7.1-52.9-8.6-95-10-111.4c-6.4-1.4-11.4-2.1-20-4.3
		c-33.6-8.6-82.8-15.7-123.6-15.7c-72.1,0-144.3,20.7-197.1,60.7c-52.9,40.7-90,105.7-90,189.3c0,93.6,43.6,158.6,101.4,196.4
		c51.4,33.6,112.1,47.8,182.9,47.8c46.4,0,95.7-12.1,111.4-17.1c7.9-2.1,16.4-5,25-6.4c10-13.6,29.3-60.7,34.3-108.6
		C2151.4,476.4,2140,473.6,2133.6,480z"/>
	<path d="M2210.6,582.8l-15.7,2.2c-5,5-4.3,17.9,1.4,20.7c31.4-1.4,65-2.1,96.4-2.1c31.4,0,63.6,0.7,95,2.1
		c5.7-2.8,6.4-15.7,1.4-20.7l-15.7-2.2c-33.6-4.3-40-6.4-40-82.1V235c0-75.7,6.4-77.8,40-82.1l15.7-2.1c5-5,4.3-17.9-1.4-20.7
		c-31.4,1.4-63.6,2.1-95,2.1c-32.8,0-65-0.7-96.4-2.1c-5.7,2.9-6.4,15.7-1.4,20.7l15.7,2.1c33.6,4.3,40,6.4,40,82.1v265.7
		C2250.6,576.4,2244.2,578.6,2210.6,582.8z"/>
	<path d="M2771.3,585l-25.7-2.9c-33.6-3.6-40-5.7-40-81.4V192.1c0-30,0.7-31.4,19.3-31.4h40.7c76.4,0,90,13.6,99.3,69.3
		c6.4,5,18.6,3.6,22.1-2.2c-2.1-22.9,3.6-84.3,10.7-113.6c-1.4-2.1-5-3.6-9.3-3.6c-2.8,0-5.7,1.4-8.6,2.8
		c-8.6,16.4-19.3,18.6-54.3,18.6h-291.4c-48.6,0-58.6-0.7-62.1-18.6c-1.4-2.1-4.3-2.8-7.1-2.8c-3.6,0-6.4,0.7-7.9,2.8
		c-5,25-15.7,69.3-27.9,107.9c2.8,7.1,17.9,9.3,22.9,5c26.4-57.9,45.7-65.7,111.4-65.7h40c18.6,0,19.3,1.4,19.3,31.4v308.6
		c0,75.7-6.4,77.9-40,80.7l-30,3.6c-5,3.6-4.3,17.9,1.4,20.7c45.7-1.4,79.3-2.1,110.7-2.1c31.4,0,63.6,0.7,105,2.1
		C2775.6,602.9,2776.3,590,2771.3,585z"/>
	<path d="M3295.6,585l-10.7-2.2c-36.4-6.4-40-11.4-56.4-59.3l-102.9-299.3c-11.4-32.1-20.7-65.7-32.1-97.9
		c-2.9-3.6-6.4-5.7-12.1-5.7c-1.4,0-25,29.3-50,34.3c2.1,12.2-4.3,29.3-13.6,52.2l-97.9,254.3c-15,38.6-26.4,68.6-35,87.1
		c-10.7,23.6-18.6,30-39.3,32.9l-21.4,3.6c-5,6.4-4.3,17.1,0.7,20.7c25-1.4,47.1-2.1,70.7-2.1c29.3,0.7,52.9,0.7,75.7,2.1
		c5.7-2.8,6.4-15.7,1.4-20.7l-20.7-3.6c-26.4-3.6-29.3-5.7-15-47.8l29.3-85.7c6.4-19.3,5.7-19.3,24.3-19.3h95c20,0,22.1,0,29.3,19.3
		l33.6,97.1c9.3,30.7,7.1,35-18.6,37.8l-15.7,2.2c-4.3,4.3-3.6,17.1,2.1,20.7c25-0.7,56.4-2.1,87.1-2.1c37.2,0,63.6,0.7,92.9,2.1
		C3301.3,602.1,3301.3,590,3295.6,585z M3076.3,396.4h-74.3c-17.1,0-19.3,0-11.4-20.7l30-83.6c12.9-33.6,18.6-51.4,21.4-56.4h1.4
		c3.6,5,7.9,18.6,20,56.4l30,85.7C3099.2,395,3096.3,396.4,3076.3,396.4z"/>
	<path d="M3748.4,132.1c-27.9,0-54.3-0.7-82.1-2.1c-7.1,2.1-7.9,15.7-1.4,20.7l16.4,2.1c17.9,2.9,29.3,7.1,35.7,17.9
		c12.9,21.4,13.6,87.1,13.6,140.7v139.3c0,11.4,0,15-2.1,17.1c-7.2-4.3-73.6-80-103.6-112.8l-71.4-77.2
		c-25-27.1-102.9-117.1-115-147.9c-17.1,1.4-34.3,2.1-49.3,2.1c-17.9,0-57.1,0.7-84.3-2.1c-7.2,2.1-7.9,16.4-2.9,20.7l10.7,2.1
		c10,2.1,30,7.9,37.9,14.3c24.3,20.7,23.6,32.1,23.6,87.8v169.3c0,56.4,0,118.6-9.3,140.7c-5,11.4-17.9,14.3-31.4,16.4l-15.7,3.6
		c-5.7,5-4.3,17.1,1.4,20.7c25-1.4,44.3-2.1,74.3-2.1c27.1,0,55,0.7,81.4,2.1c7.2-2.1,7.9-15.7,1.4-20.7l-15.7-2.2
		c-17.9-2.8-30-7.1-36.4-17.9c-12.1-21.4-12.9-87.1-12.9-140.7V285c0-37.8,0-45.7,2.2-45.7c12.1,10.7,35,37.9,81.4,90L3662,520
		c51.4,58.6,72.1,82.9,83.6,97.9c8.6,0.7,18.6-2.2,24.3-10c-2.1-16.4-2.1-104.3-2.1-125.7V311.4c0-56.4,0-118.6,10-140.7
		c5-11.4,17.1-14.3,30.7-16.4l16.4-3.6c5.7-5,4.3-17.1-1.4-20.7C3797.7,131.4,3779.1,132.1,3748.4,132.1z"/>
	<path d="M4239,497.8c-25,57.9-40.7,78.6-131.4,77.2c-60,0-72.1-5.7-80.7-15.7c-10.7-12.1-12.1-37.8-12.1-74.3v-90.7
		c0-17.9,0.7-19.3,17.1-19.3h34.3c62.1,0,74.3,1.4,79.3,31.4l5,28.6c5.7,4.3,19.3,4.3,22.9-0.7c-0.7-22.9-2.1-47.8-2.1-75
		c0-26.4,1.4-52.1,2.1-71.4c-3.6-5.7-17.1-5.7-22.9-0.7l-5,24.3c-5,30.7-17.1,31.4-79.3,31.4h-34.3c-16.4,0-17.1-0.7-17.1-19.3
		V202.9c0-40.7,0-42.1,30.7-42.1h47.8c19.3,0,40.7,1.4,57.1,6.4c22.9,5.7,33.6,23.6,45,65c5.7,4.3,20,2.8,22.9-2.8
		c-4.3-30.7-8.6-87.2-11.4-99.3c-9.3,1.4-50.7,2.1-96.4,2.1H3974c-31.4,0-65-0.7-92.1-2.1c-5.7,2.9-6.4,15.7-1.4,20.7l11.4,1.4
		c33.6,5,40,7.1,40,82.8v265.7c0,75.7-6.4,77.9-40,81.4l-26.4,2.9c-5,5-4.3,17.9,1.4,20.7c32.1-1.4,75.7-2.1,107.1-2.1h81.4
		c83.6,0,145,0.7,176.4,2.1c10-19.3,25.7-73.6,30-103.6C4257.6,495,4245.5,492.9,4239,497.8z"/>
	<path d="M947.3,964.1c-18.5,38-30,39-59.2,39c-24.6,0-31-2.7-35.3-8.7c-4-5.7-5.4-16.5-5.4-32v-40.1c0-10.1,0.3-10.4,9.4-10.4H880
		c17.5,0,21.2,2.7,24.9,18.9l1.7,8.4c2.4,3,10.8,2.7,12.5-0.3c-0.7-10.8-1-22.9-1-35.7s0.3-24.9,1-35.7c-1.7-3-10.1-3-12.5-0.3
		l-1.7,8.4c-3.7,16.2-7.4,18.5-24.9,18.5h-23.2c-9.1,0-9.4-0.7-9.4-10.1v-58.9c0-12.5,0-13.1,11.1-13.1h26.9
		c16.5,0,26.6,4.1,33,10.4c4.4,4.7,9.1,14.8,12.8,26.6c3.4,3,11.1,2.4,12.5-1.3c-1.7-22.6-4.1-46.8-4.4-52.2c-4.4,0.7-23.6,1-45.1,1
		h-71.3c-16.2,0-32.7-0.3-48.5-1c-3.4,2-3.7,9.8-0.7,11.8l8.4,1.7c15.1,2.7,17.2,5.1,17.2,35.7v125.5c0,31-2,33.3-17.2,35.3
		l-15.8,2.4c-2.7,1.7-2.7,9.8,0,11.8c25.2-0.7,41.7-1,57.9-1h43.8c27.6,0,59.9,0.3,77.8,1c4.7-9.1,12.8-36.3,14.1-53.9
		C958.4,961.7,950,960.4,947.3,964.1z"/>
	<path d="M1208.4,796.5c-13.8,0-26.9-0.3-45.1-1c-2,2-2.7,9.1,0,11.8l9.1,1.4c9.1,1.7,16.5,3.7,19.5,10.8c3.7,9.1,5,34.3,5,61.6
		v46.4c0,6.1,0,11.8-1.3,15.2c-7.7-7.7-17.2-19.5-32.3-37l-28.3-33.3c-30.3-36-52.2-61.6-55.5-76.7c-7.1,0.7-16.8,1-28.3,1
		c-13.8,0-30.6-0.3-46.4-1c-3.4,1-3.7,9.1-1.4,11.8l9.4,1.4c11.8,2.4,16.8,5.7,19.2,11.4c2.4,4.7,2.4,10.1,2.4,28.6v85.5
		c0,27.3-1.4,52.5-4.7,61.6c-3,7.1-9.4,9.1-18.5,11.1l-5.7,1c-2.7,2.7-2,9.8,0,11.8c12.8-0.7,25.2-1,37.7-1c13.5,0,26.9,0.3,45.1,1
		c2-2,2.7-9.1,0-11.8l-9.4-1.4c-8.8-1.7-16.5-3.7-19.5-10.8c-3.7-9.1-5-34.3-5-61.6v-65.3c0-12.5,0-18.2,1.7-21.5
		c6.1,5.1,17.5,18.9,36.7,43.1l77.8,96.3c15.8,19.5,26.9,36.7,27.3,36.7c8.1,0,17.5-3.7,19.9-7.7c-0.7-11.1-0.7-32.3-0.7-54.2v-80.5
		c0-27.3,1.4-52.5,5.1-61.6c3-7.1,9.4-9.1,18.2-11.1l6.1-1c2.7-2.7,2-9.7,0-11.8C1233,796.1,1220.8,796.5,1208.4,796.5z"/>
	<path d="M1563.7,804.2c-14.1-5.4-33-8.7-61.6-8.7c-29.3,0-55.5,1.4-77.8,3c-3.7,2.4-3.7,9.8-0.7,11.4l10.4,1.4
		c14.1,2,14.8,5.7,14.8,39.7v119.2c0,31.3-2,33.7-17.2,36.3l-9.4,1.7c-3.7,1.7-3,9.4,0.7,11.4c18.2-0.7,34.3-1,50.5-1
		s32.6,0.3,51.5,1c3.7-2,3.7-9.7,0-11.4l-10.8-1.7c-15.2-2.7-17.2-5-17.2-36.3V828.1c0-13.5,0.7-17.2,13.1-17.2
		c30.3,0,43.1,26.9,43.1,51.8c0,24.9-5.7,44.8-33.6,53.5c-2.4,2-1.7,7.4,1,9.1c3.7,0.3,6.7,0.3,10.8,0.3c17.8,0,73.4-8.1,73.4-63.3
		C1604.8,829.8,1584.3,811.9,1563.7,804.2z"/>
	<path d="M1858.8,999.4c-16.2-13.8-30-39-52.2-84.1c-1.7-3.7-1.7-5.7,1.7-7.4c15.5-7.7,35.7-20.5,35.7-50.5
		c0-21.5-10.1-38.4-29.6-49.8c-12.8-7.7-37.4-12.1-66-12.1c-32,0-58.2,1.4-83.5,3c-4.1,1.7-4.1,10.1-0.7,11.8l9.1,1.4
		c14.1,2,14.8,5.7,14.8,39.4v119.2c0,31-2,33.3-17.2,36l-9.1,1.7c-2.7,1.7-2.7,9.8,0,11.8c17.5-0.7,32.3-1,49.1-1
		c16.2,0,31.6,0.3,49.5,1c2.4-2,2.4-10.1,0-11.8l-9.1-1.7c-15.2-2.7-17.2-5.1-17.2-36v-41.4c0-6.7,0.7-7.4,12.5-7.4
		c8.4,0,13.8,2.7,17.8,11.8c7.7,17.8,15.5,34.3,26.3,52.2c14.8,24.2,34.3,35.3,65.3,35.3c10.4,0,21.2-0.7,26.6-3
		c1.7-2,1.7-7.1-1.4-8.8C1876.3,1008.5,1867.6,1006.5,1858.8,999.4z M1780.7,897.1c-6.4,6.4-13.5,9.4-25.6,9.4
		c-19.9,0-20.9-1-20.9-12.8v-65.6c0.7-16.2,0.7-17.2,14.5-17.2c26.3,0,44.1,19.5,44.1,49.8C1792.9,880.6,1786.5,891.4,1780.7,897.1z
		"/>
	<path d="M2033.9,791.1c-70.4,0-120.2,51.5-120.2,118.2c0,70.3,49.1,114.8,116.8,114.8c72.4,0,121.5-44.1,121.5-117.5
		C2152,838.2,2103.9,791.1,2033.9,791.1z M2036.9,1008.5c-54.9,0-69.4-66-69.4-107c0-56.2,22.2-94.9,63.6-94.9
		c41.7,0,67,46.8,67,104.4C2098.1,965.4,2081,1008.5,2036.9,1008.5z"/>
	<path d="M2395,796.5c-12.8,0-25.6-0.3-41.4-1c-4,1.7-4,8.7-1.4,11.4l9.8,2.4c8.1,1.7,9.1,3.4,9.1,5.7c0,2-1,5.7-3.4,12.1
		c-4,11.4-17.8,49.1-26.6,70.4l-12.5,31.6c-4.1,10.1-8.1,19.2-10.8,24.9c-2.4-5.7-5.7-13.5-10.4-25.9l-29.6-75.7
		c-8.1-20.2-13.5-34.3-13.5-37c0-3,2.4-5.1,8.4-6.4l10.1-2c2-3,2.4-9.4-0.3-11.4c-20.5,0.7-35,1-50.5,1c-17.5,0-28.6-0.7-45.8-1
		c-3,1.7-4.1,7.7-1.4,11.4l9.4,2.4c16.2,4,15.5,2.7,29.3,36.7l54.5,137c4.7,11.4,10.4,29.3,14.1,38.4c2,1.7,5.1,2.7,9.1,2.7
		c5.1,0,9.1-1,11.8-2.7c7.7-18.8,16.8-45.4,34-86.2l24.6-58.2c11.8-27.3,20.5-45.4,27.9-56.6c4.4-7.1,9.1-9.7,18.5-11.8l8.7-1.7
		c2.4-2,2-10.1-0.7-11.4C2416.5,796.1,2406.4,796.5,2395,796.5z"/>
	<path d="M2633.8,964.1c-18.5,38-30,39-59.2,39c-24.6,0-31-2.7-35.3-8.7c-4-5.7-5.4-16.5-5.4-32v-40.1c0-10.1,0.3-10.4,9.4-10.4
		h23.2c17.5,0,21.2,2.7,24.9,18.9l1.7,8.4c2.4,3,10.8,2.7,12.5-0.3c-0.7-10.8-1-22.9-1-35.7s0.3-24.9,1-35.7c-1.7-3-10.1-3-12.5-0.3
		l-1.7,8.4c-3.7,16.2-7.4,18.5-24.9,18.5h-23.2c-9.1,0-9.4-0.7-9.4-10.1v-58.9c0-12.5,0-13.1,11.1-13.1h26.9
		c16.5,0,26.6,4.1,33,10.4c4.4,4.7,9.1,14.8,12.8,26.6c3.4,3,11.1,2.4,12.5-1.3c-1.7-22.6-4.1-46.8-4.4-52.2c-4.4,0.7-23.6,1-45.1,1
		h-71.4c-16.1,0-32.6-0.3-48.5-1c-3.4,2-3.7,9.8-0.7,11.8l8.4,1.7c15.1,2.7,17.2,5.1,17.2,35.7v125.5c0,31-2,33.3-17.2,35.3
		l-15.8,2.4c-2.7,1.7-2.7,9.8,0,11.8c25.2-0.7,41.7-1,57.9-1h43.8c27.6,0,59.9,0.3,77.8,1c4.7-9.1,12.8-36.3,14.1-53.9
		C2645,961.7,2636.6,960.4,2633.8,964.1z"/>
	<path d="M2895,796.5c-13.8,0-26.9-0.3-45.1-1c-2,2-2.7,9.1,0,11.8l9.1,1.4c9.1,1.7,16.5,3.7,19.5,10.8c3.7,9.1,5,34.3,5,61.6v46.4
		c0,6.1,0,11.8-1.3,15.2c-7.7-7.7-17.2-19.5-32.3-37l-28.3-33.3c-30.3-36-52.2-61.6-55.5-76.7c-7.1,0.7-16.8,1-28.3,1
		c-13.8,0-30.6-0.3-46.4-1c-3.4,1-3.7,9.1-1.4,11.8l9.4,1.4c11.8,2.4,16.8,5.7,19.2,11.4c2.4,4.7,2.4,10.1,2.4,28.6v85.5
		c0,27.3-1.4,52.5-4.7,61.6c-3,7.1-9.4,9.1-18.5,11.1l-5.7,1c-2.7,2.7-2,9.8,0,11.8c12.8-0.7,25.2-1,37.7-1c13.5,0,26.9,0.3,45.1,1
		c2-2,2.7-9.1,0-11.8l-9.4-1.4c-8.8-1.7-16.5-3.7-19.5-10.8c-3.7-9.1-5-34.3-5-61.6v-65.3c0-12.5,0-18.2,1.7-21.5
		c6.1,5.1,17.5,18.9,36.7,43.1l77.8,96.3c15.8,19.5,26.9,36.7,27.3,36.7c8.1,0,17.5-3.7,19.9-7.7c-0.7-11.1-0.7-32.3-0.7-54.2v-80.5
		c0-27.3,1.4-52.5,5.1-61.6c3-7.1,9.4-9.1,18.2-11.1l6.1-1c2.7-2.7,2-9.7,0-11.8C2919.6,796.1,2907.4,796.5,2895,796.5z"/>
	<path d="M3187.7,956.3c-9.1,22.9-27.9,52.2-68.7,52.2c-40.4,0-79.1-36-79.1-103s40.1-99,77.4-99c32.7,0,54.2,16.8,63.3,48.1
		c2.4,3,11.4,1.7,12.8-2.4c-3-19.5-4-46.5-4-52.5c-10.1-0.7-35-8.8-69.3-8.8c-35,0-69.3,10.1-93.3,30
		c-23.2,19.2-40.7,48.1-40.7,89.2c0,41.7,18.5,69.7,42.7,88.2c23.9,17.8,57.6,25.6,90.6,25.6c26.3,0,50.1-7.4,68.3-12.5
		c4.7-7.7,10.4-27.9,12.8-52.9C3198.5,954.7,3190.4,953.7,3187.7,956.3z"/>
	<path d="M3428,964.1c-18.5,38-30,39-59.2,39c-24.6,0-31-2.7-35.3-8.7c-4-5.7-5.4-16.5-5.4-32v-40.1c0-10.1,0.3-10.4,9.4-10.4h23.2
		c17.5,0,21.2,2.7,24.9,18.9l1.7,8.4c2.4,3,10.8,2.7,12.5-0.3c-0.7-10.8-1-22.9-1-35.7s0.3-24.9,1-35.7c-1.7-3-10.1-3-12.5-0.3
		l-1.7,8.4c-3.7,16.2-7.4,18.5-24.9,18.5h-23.2c-9.1,0-9.4-0.7-9.4-10.1v-58.9c0-12.5,0-13.1,11.1-13.1h26.9
		c16.5,0,26.6,4.1,33,10.4c4.4,4.7,9.1,14.8,12.8,26.6c3.4,3,11.1,2.4,12.5-1.3c-1.7-22.6-4.1-46.8-4.4-52.2c-4.4,0.7-23.6,1-45.1,1
		h-71.3c-16.2,0-32.7-0.3-48.5-1c-3.4,2-3.7,9.8-0.7,11.8l8.4,1.7c15.1,2.7,17.2,5.1,17.2,35.7v125.5c0,31-2,33.3-17.2,35.3
		l-15.8,2.4c-2.7,1.7-2.7,9.8,0,11.8c25.2-0.7,41.7-1,57.9-1h43.8c27.6,0,59.9,0.3,77.8,1c4.7-9.1,12.8-36.3,14.1-53.9
		C3439.1,961.7,3430.7,960.4,3428,964.1z"/>
</g>
</svg>
