<svg id="pro-madeinfrance" data-name="Made in France" xmlns="http://www.w3.org/2000/svg" viewBox="0 0 200 200"><defs><style>.crop-blue{fill:#1873cd;}.crop-white{fill:#fff;}.crop-red{fill:#dc2a2a;}.crop-black{fill:none;stroke:#001022;stroke-linecap:round;stroke-linejoin:round;stroke-width:10px;}</style></defs><title>pro-madeinfrance</title><path class="crop-blue" d="M85,36.27V185l-1.58,1.34A62.81,62.81,0,0,0,75,185c-11-.88-15,0-15,0L30,165l15-50s3-10,0-20C35.6,63.67,10,65,10,65L5,45H30L55,55V30s13.24,8.92,20,10C77.36,40.38,81.11,38.67,85,36.27Z"/><path class="crop-white" d="M85,185V36.27A128.51,128.51,0,0,0,100,25l5-20h15s6.38,6.28,15,15l0,0V170s-10,5-15,10a51.47,51.47,0,0,0-10,15,179.09,179.09,0,0,0-26.58-8.66Z"/><path class="crop-red" d="M195,55l-5,30a136.15,136.15,0,0,0-20,15c-9.26,8.59-5,20-5,20l10-5s1.72-2.5,5,10-5,30-5,30l10,15-25,15-25-15V20l0,0c3.09,3.09,6.47,6.49,10,10,13.26,13.43,25,5,25,5Z"/><path class="crop-black" d="M135,20c-8.66-8.69-15-15-15-15H105l-5,20A128.51,128.51,0,0,1,85,36.27c-3.89,2.4-7.64,4.11-10,3.73-6.76-1.08-20-10-20-10V55L30,45H5l5,20s25.6-1.33,35,30c3,10,0,20,0,20L30,165l30,20s4-.88,15,0a62.81,62.81,0,0,1,8.42,1.34A179.09,179.09,0,0,1,110,195a51.47,51.47,0,0,1,10-15c5-5,15-10,15-10l25,15,25-15-10-15s8.28-17.5,5-30-5-10-5-10l-10,5s-4.26-11.41,5-20a136.15,136.15,0,0,1,20-15l5-30L170,35s-11.74,8.43-25-5C141.51,26.46,138.13,23.06,135,20Z"/></svg>